<svg width="483" height="490" viewBox="0 0 483 490" fill="none" xmlns="http://www.w3.org/2000/svg">
<g filter="url(#filter0_d_2_9)">
<path d="M386 258.5C386 335.544 319.29 398 237 398C154.71 398 88 335.544 88 258.5C88 181.456 154.71 50.5 237 50.5C319.29 50.5 386 181.456 386 258.5Z" fill="#FFB703"/>
<path d="M380 258.5C380 331.864 316.355 392 237 392C157.645 392 94 331.864 94 258.5C94 221.371 110.201 170.474 136.703 128.83C163.37 86.9269 199.053 56.5 237 56.5C274.947 56.5 310.63 86.9269 337.297 128.83C363.799 170.474 380 221.371 380 258.5Z" stroke="#0D4C6B" stroke-width="12"/>
</g>
<path d="M270.361 277.574C273.389 277.574 275.977 276.5 278.125 274.352C280.371 272.203 282.275 269.518 283.838 266.295C285.498 263.072 286.816 259.605 287.793 255.895C288.867 252.086 289.746 248.521 290.43 245.201C291.113 242.076 292.09 239.83 293.359 238.463C294.727 236.998 296.191 236.266 297.754 236.266C298.926 236.266 300.098 236.656 301.27 237.438C302.539 238.121 303.662 239.049 304.639 240.221C305.713 241.393 306.543 242.711 307.129 244.176C307.812 245.641 308.154 247.105 308.154 248.57C308.154 248.766 308.154 249.01 308.154 249.303C308.154 249.596 308.057 250.035 307.861 250.621C306.592 255.602 304.834 260.826 302.588 266.295C300.439 271.764 297.656 276.793 294.238 281.383C290.82 285.973 286.67 289.781 281.787 292.809C277.002 295.836 271.387 297.35 264.941 297.35C259.668 297.35 255.078 296.227 251.172 293.98C247.266 291.734 244.189 288.756 241.943 285.045C238.916 288.463 235.254 291.344 230.957 293.688C226.758 296.129 221.826 297.35 216.162 297.35C210.303 297.35 205.127 296.178 200.635 293.834C196.24 291.49 192.529 288.316 189.502 284.312C186.475 280.211 184.18 275.426 182.617 269.957C181.152 264.391 180.42 258.434 180.42 252.086C180.42 239.586 182.422 228.355 186.426 218.395C190.43 208.434 195.752 199.986 202.393 193.053C209.033 186.021 216.602 180.65 225.098 176.939C233.691 173.229 242.578 171.373 251.758 171.373C255.859 171.373 259.18 172.496 261.719 174.742C264.258 176.988 265.527 180.064 265.527 183.971C265.527 186.51 265.234 188.316 264.648 189.391C264.16 190.367 263.184 190.855 261.719 190.855C260.352 190.855 258.936 190.758 257.471 190.562C256.006 190.367 254.492 190.27 252.93 190.27C247.266 190.27 241.504 191.539 235.645 194.078C229.785 196.52 224.463 200.328 219.678 205.504C214.99 210.582 211.133 217.076 208.105 224.986C205.078 232.799 203.564 242.125 203.564 252.965C203.564 260.875 205.078 266.979 208.105 271.275C211.133 275.475 215.283 277.574 220.557 277.574C224.658 277.574 228.076 276.061 230.811 273.033C233.545 269.908 235.742 266.246 237.402 262.047V215.758C237.402 214.293 237.305 213.072 237.109 212.096C237.012 211.119 236.865 210.289 236.67 209.605C236.572 208.922 236.475 208.336 236.377 207.848C236.279 207.262 236.23 206.725 236.23 206.236C236.23 204.674 236.963 203.453 238.428 202.574C239.99 201.598 241.846 201.109 243.994 201.109C248.975 201.109 252.93 202.428 255.859 205.064C258.789 207.604 260.254 210.68 260.254 214.293V263.805C260.254 265.465 260.449 267.125 260.84 268.785C261.23 270.348 261.816 271.812 262.598 273.18C263.379 274.449 264.404 275.523 265.674 276.402C267.041 277.184 268.604 277.574 270.361 277.574Z" fill="#023047"/>
<defs>
<filter id="filter0_d_2_9" x="44" y="6.5" width="398" height="447.5" filterUnits="userSpaceOnUse" color-interpolation-filters="sRGB">
<feFlood flood-opacity="0" result="BackgroundImageFix"/>
<feColorMatrix in="SourceAlpha" type="matrix" values="0 0 0 0 0 0 0 0 0 0 0 0 0 0 0 0 0 0 127 0" result="hardAlpha"/>
<feOffset dx="6" dy="6"/>
<feGaussianBlur stdDeviation="25"/>
<feComposite in2="hardAlpha" operator="out"/>
<feColorMatrix type="matrix" values="0 0 0 0 0 0 0 0 0 0 0 0 0 0 0 0 0 0 0.25 0"/>
<feBlend mode="normal" in2="BackgroundImageFix" result="effect1_dropShadow_2_9"/>
<feBlend mode="normal" in="SourceGraphic" in2="effect1_dropShadow_2_9" result="shape"/>
</filter>
</defs>
</svg>
